Exact Audio Copy V0.99 prebeta 1 from 25. May 2007

EAC 抓取日志文件从23. 十一月 2010, 22:52

李双江 / 20世纪中华歌坛名人百集珍藏版

使用驱动器  ：BENQ    DVD-ROM 16X   Adapter: 0  ID: 1

读取模式     : 保护
使用精确流   : 是
废除音频缓冲 : 是
使用 C2 指针 : 否

读取偏移校正                   : 738
读取 Lead-In 和 Lead-Out       : 否
用静音填充抓取中丢失偏移的采样 : 是
去除首尾静音块                 : 否
已用接口                       : Win NT 及 2000 本地 Win32 接口

所用输出格式 : 内部 WAV 函数
样本格式     : 44.100 Hz;16 Bit;立体声


被抓轨 CD 的 TOC

     音轨 |   开始   |   长度   | 起始扇区 | 结尾扇区 
    --------------------------------------------------
       1  |  0:00.00 |  2:44.27 |       0  |   12326  
       2  |  2:44.27 |  2:49.08 |   12327  |   25009  
       3  |  5:33.35 |  2:29.50 |   25010  |   36234  
       4  |  8:03.10 |  3:26.45 |   36235  |   51729  
       5  | 11:29.55 |  3:20.32 |   51730  |   66761  
       6  | 14:50.12 |  4:10.45 |   66762  |   85556  
       7  | 19:00.57 |  3:05.72 |   85557  |   99503  
       8  | 22:06.54 |  2:37.33 |   99504  |  111311  
       9  | 24:44.12 |  4:26.43 |  111312  |  131304  
      10  | 29:10.55 |  3:43.25 |  131305  |  148054  
      11  | 32:54.05 |  4:27.67 |  148055  |  168146  
      12  | 37:21.72 |  3:22.50 |  168147  |  183346  
      13  | 40:44.47 |  2:14.40 |  183347  |  193436  
      14  | 42:59.12 |  4:45.73 |  193437  |  214884  
      15  | 47:45.10 |  2:34.17 |  214885  |  226451  
      16  | 50:19.27 |  4:16.28 |  226452  |  245679  
      17  | 54:35.55 |  2:35.45 |  245680  |  257349  
      18  | 57:11.25 |  3:18.47 |  257350  |  272246  


范围状态及错误

已选择范围

     文件名 E:\文件夹\20世纪中华歌坛名人百集珍藏版-李双江[lwg188原创]\李双江 - 20世纪中华歌坛名人百集珍藏版.wav

     峰值电平 91.8 %
     范围质量 100.0 %
     复制 CRC 91EE17C8
     复制成功

没有错误发生

状态报告结尾
